<?xml version="1.0" encoding="UTF-8"?>
<svg id="Layer_1" data-name="Layer 1" xmlns="http://www.w3.org/2000/svg" viewBox="0 0 1510 551.57">
  <defs>
    <style>
      .cls-1, .cls-2 {
        fill: #2563eb;
      }

      .cls-1, .cls-3 {
        stroke-width: 0px;
      }

      .cls-4 {
        letter-spacing: 0em;
      }

      .cls-5 {
        font-size: 186.27px;
      }

      .cls-5, .cls-2 {
        font-family: Montserrat-SemiBold, Montserrat;
        font-weight: 600;
      }

      .cls-5, .cls-3 {
        fill: #579cff;
      }

      .cls-2 {
        font-size: 71.19px;
      }

      .cls-6 {
        letter-spacing: -.02em;
      }

      .cls-7 {
        letter-spacing: -.01em;
      }
    </style>
  </defs>
  <path class="cls-3" d="M202.35,378.26c5.02-4.92,13.08-4.84,18,.18l.36.37c4.92,5.02,4.84,13.08-.18,18-2.48,2.43-5.69,3.64-8.91,3.64s-6.6-1.28-9.09-3.82l-.36-.37c-4.92-5.02-4.84-13.08.18-18Z"/>
  <path class="cls-3" d="M65.45,244.83h33.82v-33.82c0-7.03,5.7-12.73,12.73-12.73s12.73,5.7,12.73,12.73v33.82h33.82c7.03,0,12.73,5.7,12.73,12.73s-5.7,12.73-12.73,12.73h-33.82v33.82c0,7.03-5.7,12.73-12.73,12.73s-12.73-5.7-12.73-12.73v-33.82h-33.82c-7.03,0-12.73-5.7-12.73-12.73s5.7-12.73,12.73-12.73Z"/>
  <path class="cls-1" d="M0,257.56C0,319.31,50.24,369.55,111.99,369.55s111.99-50.24,111.99-111.99-50.24-111.99-111.99-111.99c-4.95,0-9.82.33-14.6.95,14.33-69.93,74.6-121.06,145.5-121.06,41.21,0,79.54,16.94,107.92,47.7,2.41,2.61,5.8,4.1,9.35,4.1s6.94-1.48,9.35-4.1c28.38-30.76,66.71-47.7,107.92-47.7,82,0,148.71,68.57,148.71,152.86,0,18.51-6.73,40.4-19.88,65.24h-119.41l-31.31-109.14c-1.55-5.4-6.47-9.15-12.09-9.22-5.64-.08-10.62,3.57-12.3,8.93l-62.09,198.92-24.74-79.29c-1.66-5.32-6.58-8.94-12.15-8.94h-66.18c-7.03,0-12.73,5.7-12.73,12.73s5.7,12.73,12.73,12.73h56.82l34.1,109.29c1.66,5.31,6.58,8.94,12.15,8.94s10.49-3.62,12.15-8.94l61.58-197.29,22.24,77.51c1.57,5.46,6.56,9.22,12.23,9.22h113.94c-22.78,35.06-56.47,74.96-100.48,118.74-54.97,54.68-110.59,99.8-130.57,115.61-16.81-13.3-58.84-47.33-104.37-90.26-5.11-4.82-13.17-4.58-17.99.53-4.82,5.11-4.59,13.17.53,17.99,59.7,56.29,113.57,97.59,114.1,98,2.28,1.74,5.01,2.62,7.73,2.62s5.45-.87,7.73-2.62c.7-.54,71.14-54.57,140.6-123.64,51.26-50.97,88.84-96.73,112.61-136.97h17.77c7.03,0,12.73-5.7,12.73-12.73s-5.7-12.73-12.73-12.73h-4.21c11.27-24.04,16.94-45.81,16.94-65.24C651.6,79.99,573.47,0,477.44,0c-44,0-85.17,16.4-117.27,46.47C328.06,16.4,286.89,0,242.89,0,155.71,0,82.27,65.73,70.38,153.58,29.17,170.13,0,210.5,0,257.56ZM25.45,257.56c0-47.72,38.82-86.54,86.54-86.54s86.54,38.82,86.54,86.54-38.82,86.54-86.54,86.54-86.54-38.82-86.54-86.54Z"/>
  <text class="cls-5" transform="translate(611.61 430.74)"><tspan class="cls-4" x="0" y="0">m</tspan><tspan x="196.33" y="0">ediplus</tspan></text>
  <text class="cls-2" transform="translate(619.8 532.7)"><tspan class="cls-6" x="0" y="0">C</tspan><tspan x="50.69" y="0">ARDIO</tspan><tspan class="cls-7" x="297.49" y="0">L</tspan><tspan x="339.21" y="0">OGY CLINIC</tspan></text>
</svg>