<?xml version="1.0" encoding="UTF-8"?>
<svg id="Layer_1" data-name="Layer 1" xmlns="http://www.w3.org/2000/svg" viewBox="0 0 2000 2000">
  <defs>
    <style>
      .cls-1 {
        fill: #2563eb;
      }

      .cls-1, .cls-2 {
        stroke-width: 0px;
      }

      .cls-2 {
        fill: #579cff;
      }
    </style>
  </defs>
  <path class="cls-2" d="M703.31,1269.51c12.07-11.82,31.43-11.62,43.26.44l.87.89c11.82,12.07,11.62,31.43-.44,43.26-5.95,5.83-13.68,8.74-21.4,8.74s-15.86-3.07-21.85-9.18l-.87-.89c-11.82-12.07-11.62-31.43.44-43.26Z"/>
  <path class="cls-2" d="M374.29,948.85h81.28v-81.28c0-16.89,13.69-30.59,30.59-30.59s30.59,13.69,30.59,30.59v81.28h81.28c16.89,0,30.59,13.69,30.59,30.59s-13.69,30.59-30.59,30.59h-81.28v81.28c0,16.89-13.69,30.59-30.59,30.59s-30.59-13.69-30.59-30.59v-81.28h-81.28c-16.89,0-30.59-13.69-30.59-30.59s13.69-30.59,30.59-30.59Z"/>
  <path class="cls-1" d="M217,979.44c0,148.41,120.74,269.16,269.16,269.16s269.16-120.74,269.16-269.16-120.74-269.16-269.16-269.16c-11.89,0-23.61.79-35.1,2.29,34.43-168.07,179.29-290.95,349.67-290.95,99.05,0,191.16,40.72,259.37,114.64,5.79,6.28,13.94,9.85,22.48,9.85s16.69-3.57,22.48-9.85c68.2-73.93,160.32-114.64,259.37-114.64,197.07,0,357.4,164.8,357.4,367.37,0,44.48-16.17,97.09-47.79,156.78h-286.97l-75.25-262.3c-3.73-12.99-15.54-21.99-29.05-22.15-13.54-.19-25.53,8.57-29.55,21.47l-149.22,478.08-59.47-190.57c-3.98-12.78-15.82-21.47-29.2-21.47h-159.04c-16.89,0-30.59,13.69-30.59,30.59s13.69,30.59,30.59,30.59h136.55l81.96,262.65c3.99,12.77,15.81,21.47,29.19,21.47s25.21-8.7,29.2-21.47l147.99-474.14,53.44,186.27c3.76,13.11,15.75,22.15,29.4,22.15h273.82c-54.74,84.27-135.71,180.15-241.47,285.36-132.11,131.41-265.78,239.85-313.79,277.84-40.4-31.96-141.42-113.75-250.84-216.92-12.29-11.59-31.65-11.02-43.24,1.27-11.59,12.29-11.02,31.65,1.27,43.24,143.47,135.27,272.94,234.55,274.23,235.53,5.48,4.19,12.03,6.29,18.58,6.29s13.1-2.09,18.58-6.29c1.69-1.29,170.97-131.16,337.9-297.15,123.18-122.48,213.52-232.46,270.65-329.18h42.7c16.89,0,30.59-13.69,30.59-30.59s-13.69-30.59-30.59-30.59h-10.13c27.1-57.76,40.72-110.09,40.72-156.78,0-236.3-187.77-428.54-418.57-428.54-105.75,0-204.68,39.42-281.85,111.68-77.16-72.26-176.09-111.68-281.85-111.68-209.51,0-386.01,157.97-414.58,369.11-99.04,39.78-169.16,136.79-169.16,249.88ZM278.17,979.44c0-114.68,93.3-207.98,207.98-207.98s207.99,93.3,207.99,207.98-93.3,207.98-207.99,207.98-207.98-93.3-207.98-207.98Z"/>
</svg>